<svg width="168" height="49" viewBox="0 0 168 49" fill="none" xmlns="http://www.w3.org/2000/svg">
<rect y="0.900391" width="48" height="48" rx="12" fill="url(#paint0_linear_3987_54031)"/>
<path fill-rule="evenodd" clip-rule="evenodd" d="M19.7978 28.5985V31.9004C15.6927 31.7683 14.0766 28.8296 13.9796 26.8815V26.023C13.9796 24.306 12.6543 22.9523 11.0382 22.8532V19.9145C12.6543 19.8155 13.9473 18.4287 13.9473 16.7447V15.9193C13.9796 15.523 14.0442 15.0608 14.2058 14.6315L14.3675 14.2023H8V10.9004H35.9998V14.2023H19.7654C17.6321 14.3344 17.2442 15.523 17.1796 16.0844V16.7777C17.1796 18.3957 16.5978 19.9806 15.4988 21.1693L15.3048 21.4004L15.4988 21.6315C16.5978 22.8532 17.2119 24.4051 17.2119 26.056V26.7825C17.2765 27.2777 17.6644 28.4994 19.7978 28.5985ZM35.9673 36.7088H29.7858H29.6889C28.4929 38.1153 26.7798 38.9004 25.002 38.9004H14.303C10.9414 38.9004 8.16162 36.12 8 32.6854H11.2323C11.3939 34.3209 12.7192 35.5639 14.303 35.5639H25.002C26.4889 35.5639 27.7495 34.4845 28.0404 32.9471V32.8817C28.0404 31.2789 28.6222 29.7088 29.7212 28.5312L29.9151 28.3023L29.7212 28.0733C28.6222 26.863 28.0081 25.3256 28.0081 23.6901V22.9705C27.9434 22.4798 27.5555 21.2695 25.4222 21.1714V17.9004C29.5273 18.0639 31.1434 20.9424 31.2404 22.8724V23.7228C31.2404 25.4238 32.5333 26.7976 34.1818 26.863L40 26.863V29.8069L33.8909 29.8069C32.4687 30.0359 31.3697 31.2135 31.2404 32.6854V33.1107V33.2088C31.2404 33.3723 31.2081 33.5359 31.1757 33.6994L31.1757 33.6995L31.1111 34.092H35.9673V36.7088Z" fill="white"/>
<path d="M64 15.6445H77.7051V18.8926H72.6878V33.8388H69.0173V18.8926H64V15.6445Z" fill="#191919"/>
<path d="M83.61 34.1557C80.0979 34.1557 76.9818 31.5679 76.9818 27.686C76.9818 23.7778 80.0979 21.19 83.61 21.19C87.1221 21.19 90.2381 23.7778 90.2381 27.686C90.2381 31.5679 87.1221 34.1557 83.61 34.1557ZM83.61 30.9341C85.3264 30.9341 86.726 29.5873 86.726 27.686C86.726 25.7584 85.3264 24.4116 83.61 24.4116C81.8935 24.4116 80.494 25.7584 80.494 27.686C80.494 29.5873 81.8935 30.9341 83.61 30.9341Z" fill="#191919"/>
<path d="M100.119 21.19C103.34 21.19 105.03 23.3817 105.004 27.0787V33.8388H101.545V27.2635C101.545 25.3358 100.383 24.4644 99.1945 24.4644C97.9534 24.4644 96.4218 25.1246 96.4218 27.3692V33.8388H92.9625V21.5068H96.4218V23.593C96.95 21.9294 98.9041 21.19 100.119 21.19Z" fill="#191919"/>
<path d="M119.825 15.6445V18.8926H112.246V23.2761H118.267V26.4977H112.246V33.8388H108.575V15.6445H119.825Z" fill="#191919"/>
<path d="M129.83 28.0293V21.5068H133.29V33.8388H129.83V31.8319C129.302 33.4427 127.348 34.1557 126.133 34.1557C122.912 34.1557 121.222 31.9904 121.248 28.2934V21.5068H124.707V28.1086C124.707 30.0363 125.869 30.9341 127.058 30.9341C128.299 30.9341 129.83 30.2475 129.83 28.0293Z" fill="#191919"/>
<path d="M143.827 21.19C144.487 21.19 145.226 21.2956 145.781 21.5861L144.989 24.8869C144.249 24.4908 143.642 24.438 143.219 24.438C141.45 24.438 140.236 26.1016 140.236 29.6137V33.8388H136.776V21.5068H140.209V24.1475C140.896 22.0878 142.295 21.19 143.827 21.19Z" fill="#191919"/>
<path d="M156.541 23.1441V21.5068H160V33.8388H156.541V32.0696C155.722 33.3371 154.138 34.1557 152.474 34.1557C149.068 34.1557 146.533 31.515 146.533 27.686C146.533 23.8571 149.015 21.19 152.553 21.19C154.138 21.19 155.722 21.8765 156.541 23.1441ZM153.24 30.9341C154.983 30.9341 156.435 29.4553 156.435 27.686C156.435 25.8112 154.93 24.4116 153.213 24.4116C151.418 24.4116 150.071 25.8904 150.071 27.686C150.071 29.4025 151.418 30.9341 153.24 30.9341Z" fill="#191919"/>
<defs>
<linearGradient id="paint0_linear_3987_54031" x1="-29" y1="50.4004" x2="54.7573" y2="23.9845" gradientUnits="userSpaceOnUse">
<stop offset="0.0156" stop-color="#D79FE2"/>
<stop offset="0.2888" stop-color="#BB87FF"/>
<stop offset="0.692" stop-color="#6591FF"/>
<stop offset="1" stop-color="#7DD5F0"/>
</linearGradient>
</defs>
</svg>
